<svg width="60" height="60" viewBox="0 0 60 60" fill="none" xmlns="http://www.w3.org/2000/svg">
<path d="M30 6.5625C17.0625 6.5625 6.5625 17.0625 6.5625 30C6.5625 42.9375 17.0625 53.4375 30 53.4375C42.9375 53.4375 53.4375 42.9375 53.4375 30C53.4375 17.0625 42.9375 6.5625 30 6.5625ZM30 41.7188C23.5312 41.7188 18.2812 36.4688 18.2812 30C18.2812 23.5312 23.5312 18.2812 30 18.2812C36.4688 18.2812 41.7188 23.5312 41.7188 30C41.7188 36.4688 36.4688 41.7188 30 41.7188Z" fill="white"/>
<path d="M6.5625 30C6.5625 33.0469 7.125 35.9531 8.20312 38.625L18.8438 33.6563C18.4688 32.4844 18.2812 31.2656 18.2812 30C18.2812 25.7812 20.4844 22.125 23.8125 20.0625L18.8438 9.375C11.5312 13.3594 6.5625 21.0938 6.5625 30ZM30 6.5625C26.9531 6.5625 24.0469 7.125 21.375 8.20312L26.3438 18.8438C27.4688 18.4688 28.7344 18.2812 30 18.2812C34.2188 18.2812 37.875 20.4844 39.9375 23.8125L50.625 18.8438C46.6406 11.5312 38.9062 6.5625 30 6.5625Z" fill="#FF5576"/>
<path d="M25.7812 17.5781L24.5625 15C23.6719 15.3281 22.8281 15.75 22.0312 16.2187L23.2031 18.7969C24 18.2812 24.8438 17.9063 25.7812 17.5781Z" fill="#C3DBEA"/>
<path d="M30 41.7188C25.7812 41.7188 22.125 39.5156 20.0625 36.1875L9.375 41.1563C13.3594 48.4688 21.0938 53.4375 30 53.4375C33.0469 53.4375 35.9531 52.875 38.625 51.7969L33.6563 41.1563C32.4844 41.5313 31.2656 41.7188 30 41.7188ZM53.4375 30C53.4375 26.9531 52.875 24.0469 51.7969 21.375L41.1563 26.3438C41.5312 27.4688 41.7188 28.7344 41.7188 30C41.7188 34.2188 39.5156 37.875 36.1875 39.9375L41.1563 50.625C48.4688 46.6406 53.4375 38.9062 53.4375 30Z" fill="#FF5576"/>
<path d="M38.0156 50.5312C38.9062 50.2031 39.75 49.7812 40.5469 49.3594L39.375 46.7812C38.5781 47.25 37.6875 47.625 36.8438 47.9531L38.0156 50.5312Z" fill="#C3DBEA"/>
<path d="M10.0781 26.1094C9.9375 26.1094 9.84375 26.1094 9.70313 26.0625C8.95313 25.875 8.48438 25.0781 8.71875 24.3281C9.89063 19.875 12.4219 15.9375 16.0312 12.9844C16.6406 12.4688 17.5312 12.5625 18 13.1719C18.5156 13.7813 18.4219 14.6719 17.8125 15.1406C14.6719 17.7188 12.4687 21.1406 11.4375 25.0313C11.25 25.6875 10.6875 26.1094 10.0781 26.1094ZM9.375 31.4063C9 31.4063 8.625 31.2656 8.39062 30.9844C8.34375 30.9375 8.25 30.8438 8.20313 30.7969C8.15625 30.7031 8.10938 30.6563 8.0625 30.5625C8.01563 30.4688 8.01563 30.375 7.96875 30.2813C7.96875 30.1875 7.92188 30.0938 7.92188 30C7.92188 29.625 8.0625 29.25 8.34375 29.0156C8.85937 28.5 9.79687 28.5 10.3125 29.0156C10.5937 29.2969 10.7344 29.625 10.7344 30C10.7344 30.375 10.5937 30.75 10.3125 30.9844C10.125 31.2656 9.75 31.4063 9.375 31.4063Z" fill="white"/>
<path d="M15.4688 31.4062C14.6719 31.4062 14.0625 30.7969 14.0625 30C14.0625 21.2344 21.2344 14.0625 30 14.0625C30.7969 14.0625 31.4062 14.6719 31.4062 15.4688C31.4062 16.2656 30.7969 16.875 30 16.875C28.7344 16.875 27.5156 18.0938 26.3438 18.8438C26.3438 18.8438 25.6875 18.1875 24.9844 18.5156C24.5625 18.7031 24.0938 19.875 23.8125 20.0156L22.4531 20.7188C18.6563 23.0156 16.875 25.2656 16.875 30C16.875 30.7969 16.2656 31.4062 15.4688 31.4062Z" fill="#DB3E64"/>
<path d="M26.3438 18.8438L24.5625 15C23.6719 15.3281 22.8281 15.7031 22.0312 16.2187L23.8125 20.0625C24.6094 19.5469 25.4531 19.1719 26.3438 18.8438Z" fill="#FF5576"/>
<path d="M30 52.0312C29.2031 52.0312 28.5938 51.4219 28.5938 50.625C28.5938 49.8281 29.2031 49.2188 30 49.2188C40.5938 49.2188 49.2188 40.5938 49.2188 30C49.2188 29.2031 49.8281 28.5938 50.625 28.5938C51.4219 28.5938 52.0312 29.2031 52.0312 30C52.0312 37.5938 48.1875 44.2969 42.3281 48.2812C41.7656 48.6562 41.7656 50.2969 41.2031 50.625C40.875 50.8125 39.9375 50.1094 39.5625 50.25C39.0469 50.4844 39.1406 51.6094 38.625 51.7969C38.0156 52.0312 36.8437 50.9531 36.1875 51.1406C34.2187 51.7031 32.1562 52.0312 30 52.0312Z" fill="#DB3E64"/>
<path d="M38.625 51.7969C39.5156 51.4687 40.3594 51.0469 41.1562 50.625L39.375 46.7812C38.5781 47.25 37.6875 47.625 36.8438 47.9531L38.625 51.7969Z" fill="#FF5576"/>
<path d="M52.0312 30C52.0312 37.875 47.8594 44.8125 41.625 48.7031C41.0156 49.0781 40.7812 49.8281 41.1094 50.4844C41.4844 51.2344 42.4219 51.5156 43.125 51.0938C50.1562 46.6875 54.8438 38.9062 54.8438 30C54.8438 27.3281 54.4219 24.7031 53.625 22.3125C53.3438 21.5156 52.4531 21.0938 51.7031 21.4688C51.0469 21.75 50.7656 22.5 50.9531 23.2031C51.6562 25.3125 52.0312 27.6094 52.0312 30ZM30 52.0312C22.125 52.0312 15.1875 47.8594 11.2969 41.625C10.9219 41.0156 10.1719 40.7812 9.51562 41.1094C8.76562 41.4844 8.48438 42.4219 8.90625 43.125C13.3125 50.1562 21.0938 54.8438 30 54.8438C32.6719 54.8438 35.2969 54.4219 37.6875 53.625C38.4844 53.3438 38.9062 52.4531 38.5312 51.7031C38.25 51.0469 37.5 50.7656 36.7969 50.9531C34.6875 51.6562 32.3906 52.0312 30 52.0312ZM19.6875 30C19.6875 26.7656 21.1875 23.9062 23.4844 21.9844C24 21.5625 24.1875 20.8594 23.9062 20.2969C23.5312 19.4531 22.4531 19.2188 21.75 19.7812C18.7969 22.1719 16.875 25.875 16.875 30C16.875 30.8906 16.9688 31.7344 17.1094 32.5781C17.2969 33.4688 18.2812 33.9375 19.0781 33.5625C19.6406 33.2812 19.9688 32.6719 19.875 32.0625C19.7344 31.3594 19.6875 30.7031 19.6875 30ZM30 19.6875C33.2344 19.6875 36.0938 21.1875 38.0156 23.4844C38.4375 24 39.1406 24.1875 39.7031 23.9062C40.5469 23.5312 40.7812 22.4531 40.2188 21.75C37.8281 18.7969 34.125 16.875 30 16.875C29.1094 16.875 28.2656 16.9688 27.4219 17.1094C26.5312 17.2969 26.0625 18.2812 26.4375 19.0781C26.7188 19.6406 27.3281 19.9688 27.9375 19.875C28.6406 19.7344 29.2969 19.6875 30 19.6875ZM30 40.3125C26.7656 40.3125 23.9062 38.8125 21.9844 36.5156C21.5625 36 20.8594 35.8125 20.2969 36.0938C19.4531 36.4688 19.2188 37.5469 19.7812 38.25C22.1719 41.2031 25.875 43.125 30 43.125C30.8906 43.125 31.7344 43.0312 32.5781 42.8906C33.4688 42.7031 33.9375 41.7188 33.5625 40.9219C33.2812 40.3594 32.6719 40.0312 32.0625 40.125C31.3594 40.2656 30.7031 40.3125 30 40.3125ZM40.3125 30C40.3125 33.2344 38.8125 36.0938 36.5156 38.0156C36 38.4375 35.8125 39.1406 36.0938 39.7031C36.4688 40.5469 37.5469 40.7812 38.25 40.2188C41.2031 37.8281 43.125 34.125 43.125 30C43.125 29.1094 43.0312 28.2656 42.8906 27.4219C42.7031 26.5312 41.7188 26.0625 40.9219 26.4375C40.3594 26.7188 40.0312 27.3281 40.125 27.9375C40.2656 28.6406 40.3125 29.2969 40.3125 30ZM7.96875 30C7.96875 22.125 12.1406 15.1875 18.375 11.2969C18.9844 10.9219 19.2188 10.1719 18.8906 9.51562C18.5156 8.76562 17.5781 8.48438 16.875 8.90625C9.84375 13.3125 5.15625 21.0938 5.15625 30C5.15625 32.6719 5.57813 35.2969 6.375 37.6875C6.65625 38.4844 7.54688 38.9062 8.29688 38.5312C8.95313 38.25 9.23437 37.5 9.04687 36.7969C8.34375 34.6875 7.96875 32.3906 7.96875 30ZM30 7.96875C37.875 7.96875 44.8125 12.1406 48.7031 18.375C49.0781 18.9844 49.8281 19.2188 50.4844 18.8906C51.2344 18.5156 51.5156 17.5781 51.0938 16.875C46.6875 9.84375 38.9062 5.15625 30 5.15625C27.3281 5.15625 24.7031 5.57813 22.3125 6.375C21.5156 6.65625 21.0938 7.54688 21.4688 8.29688C21.75 8.95313 22.5 9.23437 23.2031 9.04687C25.3125 8.34375 27.6094 7.96875 30 7.96875Z" fill="#444B54"/>
</svg>
