<svg width="60" height="60" viewBox="0 0 60 60" fill="none" xmlns="http://www.w3.org/2000/svg">
<path d="M30 2.5C23.7011 2.5 17.6602 5.00222 13.2062 9.45621C8.75222 13.9102 6.25 19.9511 6.25 26.25C6.25 32.5489 8.75222 38.5898 13.2062 43.0438C17.6602 47.4978 23.7011 50 30 50C36.2989 50 42.3398 47.4978 46.7938 43.0438C51.2478 38.5898 53.75 32.5489 53.75 26.25C53.75 19.9511 51.2478 13.9102 46.7938 9.45621C42.3398 5.00222 36.2989 2.5 30 2.5Z" fill="#FFF59D"/>
<path d="M46.2497 26.25C46.2497 16.625 37.9997 8.99999 28.1247 10.125C20.6247 11 14.6247 17 13.8747 24.5C13.2497 30.25 15.6247 35.375 19.6247 38.625C21.3747 40.125 22.4997 42.25 22.4997 44.625V45H37.4997V44.875C37.4997 42.625 38.4997 40.375 40.2497 38.875C43.8747 35.875 46.2497 31.375 46.2497 26.25Z" fill="#FBC02D"/>
<path d="M33.7505 45H31.2505V31.25C31.2505 30.9663 31.3468 30.6913 31.5243 30.4688L35.673 25.2838L33.7505 24.0025L30.6943 26.04C30.2743 26.32 29.728 26.32 29.308 26.04L26.2505 24.0025L24.328 25.2838L28.4755 30.4688C28.6543 30.6913 28.7505 30.9663 28.7505 31.25V45H26.2505V31.6888L21.5243 25.7813C21.3055 25.5075 21.2118 25.155 21.2643 24.8088C21.3168 24.4625 21.5143 24.155 21.8068 23.96L25.5568 21.46C25.9768 21.18 26.523 21.18 26.943 21.46L30.0005 23.4975L33.0568 21.46C33.4768 21.18 34.023 21.18 34.443 21.46L38.193 23.96C38.4843 24.1538 38.6818 24.4625 38.7355 24.8088C38.7893 25.155 38.6955 25.5075 38.4768 25.7813L33.7505 31.6888V45Z" fill="#FFF59D"/>
<path d="M30 50C29.0054 50 28.0516 50.3951 27.3483 51.0984C26.6451 51.8016 26.25 52.7554 26.25 53.75C26.25 54.7446 26.6451 55.6984 27.3483 56.4016C28.0516 57.1049 29.0054 57.5 30 57.5C30.9946 57.5 31.9484 57.1049 32.6517 56.4016C33.3549 55.6984 33.75 54.7446 33.75 53.75C33.75 52.7554 33.3549 51.8016 32.6517 51.0984C31.9484 50.3951 30.9946 50 30 50Z" fill="#5C6BC0"/>
<path d="M32.5 55H27.5C24.75 55 22.5 52.75 22.5 50V43.75H37.5V50C37.5 52.75 35.25 55 32.5 55Z" fill="#9FA8DA"/>
<path d="M37.5 50L23 52C23.375 52.875 24.125 53.75 25 54.25L36.75 52.625C37.25 51.875 37.5 51 37.5 50ZM22.5 47.125V49.625L37.5 47.5V45L22.5 47.125Z" fill="#5C6BC0"/>
<path d="M56.5002 17.625C56.6252 17.125 56.6252 16.625 56.6252 16.25C56.6252 15.875 56.6252 15.25 56.5002 14.875L59.3752 12.75C59.6252 12.5 59.7502 12.125 59.6252 11.875L56.7502 7C56.6252 6.75 56.2502 6.625 55.8752 6.75L52.6252 8.25C51.8752 7.625 51.0002 7.125 50.1252 6.75L49.7502 3.125C49.7502 2.75 49.3752 2.5 49.1252 2.5H43.3752C43.1252 2.5 42.7502 2.75 42.7502 3.125L42.3752 6.75C41.5002 7 40.6252 7.5 39.8752 8.125L36.6252 6.625C36.2502 6.5 35.8752 6.625 35.7502 6.875L32.8752 11.875C32.7502 12.125 32.8752 12.5 33.1252 12.75L36.0002 14.875C35.8752 15.375 35.8752 15.875 35.8752 16.25C35.8752 16.625 35.8752 17.25 36.0002 17.625L33.1252 19.75C32.8752 20 32.7502 20.375 32.8752 20.625L35.7502 25.5C35.8752 25.75 36.2502 25.875 36.6252 25.75L39.8752 24.25C40.6252 24.875 41.5002 25.375 42.3752 25.75L42.7502 29.375C42.7502 29.75 43.1252 30 43.3752 30H49.0002C49.3752 30 49.6252 29.75 49.6252 29.375L50.0002 25.75C50.8752 25.375 51.7502 24.875 52.5002 24.25L55.7502 25.75C56.1252 25.875 56.5002 25.75 56.6252 25.5L59.5002 20.625C59.6252 20.375 59.6252 19.875 59.2502 19.75L56.5002 17.625ZM46.2502 22.75C42.6252 22.75 39.7502 19.875 39.7502 16.25C39.7502 12.625 42.6252 9.75 46.2502 9.75C49.8752 9.75 52.7502 12.625 52.7502 16.25C52.7502 19.875 49.8752 22.75 46.2502 22.75Z" fill="#546E7A"/>
<path d="M46.25 8.75C42.125 8.75 38.75 12.125 38.75 16.25C38.75 20.375 42.125 23.75 46.25 23.75C50.375 23.75 53.75 20.375 53.75 16.25C53.75 12.125 50.375 8.75 46.25 8.75ZM46.25 20C44.125 20 42.5 18.375 42.5 16.25C42.5 14.125 44.125 12.5 46.25 12.5C48.375 12.5 50 14.125 50 16.25C50 18.375 48.375 20 46.25 20Z" fill="#455A64"/>
<path d="M46.25 12.5C45.2554 12.5 44.3016 12.8951 43.5984 13.5983C42.8951 14.3016 42.5 15.2554 42.5 16.25C42.5 17.2446 42.8951 18.1984 43.5984 18.9017C44.3016 19.6049 45.2554 20 46.25 20C47.2446 20 48.1984 19.6049 48.9016 18.9017C49.6049 18.1984 50 17.2446 50 16.25C50 15.2554 49.6049 14.3016 48.9016 13.5983C48.1984 12.8951 47.2446 12.5 46.25 12.5Z" fill="#FFF59D"/>
</svg>
