<svg width="69" height="68" viewBox="0 0 69 68" fill="none" xmlns="http://www.w3.org/2000/svg">
<path d="M40.2497 9.91669C37.0743 9.91669 34.4997 12.4539 34.4997 15.5834V51C31.849 51 29.7574 53.3573 30.2634 56.0575C30.5754 57.7278 31.9539 59.0977 33.6459 59.4178C35.8841 59.8414 37.8664 58.5565 38.5477 56.6653H66.1247C67.7132 56.6653 68.9997 55.3973 68.9997 53.8319V12.75C68.9997 11.1846 67.7132 9.91669 66.1247 9.91669H40.2497Z" fill="#35C1F1"/>
<path d="M28.75 56.6667H2.875C1.28656 56.6667 0 55.3988 0 53.8333V12.75C0 11.1846 1.28656 9.91669 2.875 9.91669H28.75C31.9254 9.91669 34.5 12.4539 34.5 15.5834V56.6667C34.5 56.6667 31.9254 56.6667 28.75 56.6667Z" fill="#50E6FF"/>
<path d="M21.5625 24.0833C22.3564 24.0833 23 23.4491 23 22.6667C23 21.8843 22.3564 21.25 21.5625 21.25C20.7686 21.25 20.125 21.8843 20.125 22.6667C20.125 23.4491 20.7686 24.0833 21.5625 24.0833Z" fill="#1B9DE2"/>
<path d="M15.8125 21.25C15.5451 21.25 7.45487 21.25 7.1875 21.25C6.394 21.25 5.75 21.8847 5.75 22.6667C5.75 23.4487 6.394 24.0833 7.1875 24.0833C7.45487 24.0833 15.5451 24.0833 15.8125 24.0833C16.606 24.0833 17.25 23.4487 17.25 22.6667C17.25 21.8847 16.606 21.25 15.8125 21.25Z" fill="#1B9DE2"/>
<path d="M50.3125 21.25C50.0451 21.25 41.9549 21.25 41.6875 21.25C40.894 21.25 40.25 21.8847 40.25 22.6667C40.25 23.4487 40.894 24.0833 41.6875 24.0833C41.9549 24.0833 50.0451 24.0833 50.3125 24.0833C51.106 24.0833 51.75 23.4487 51.75 22.6667C51.75 21.8847 51.106 21.25 50.3125 21.25Z" fill="#0078D4"/>
<path d="M15.8125 26.9167C15.5451 26.9167 7.45487 26.9167 7.1875 26.9167C6.394 26.9167 5.75 27.5514 5.75 28.3334C5.75 29.1154 6.394 29.75 7.1875 29.75C7.45487 29.75 15.5451 29.75 15.8125 29.75C16.606 29.75 17.25 29.1154 17.25 28.3334C17.25 27.5514 16.606 26.9167 15.8125 26.9167Z" fill="#1B9DE2"/>
<path d="M15.8125 32.5833C15.5451 32.5833 7.45487 32.5833 7.1875 32.5833C6.394 32.5833 5.75 33.218 5.75 34C5.75 34.782 6.394 35.4166 7.1875 35.4166C7.45487 35.4166 15.5451 35.4166 15.8125 35.4166C16.606 35.4166 17.25 34.782 17.25 34C17.25 33.218 16.606 32.5833 15.8125 32.5833Z" fill="#1B9DE2"/>
<path d="M15.8125 43.9167C15.5451 43.9167 7.45487 43.9167 7.1875 43.9167C6.394 43.9167 5.75 44.5514 5.75 45.3334C5.75 46.1154 6.394 46.75 7.1875 46.75C7.45487 46.75 15.5451 46.75 15.8125 46.75C16.606 46.75 17.25 46.1154 17.25 45.3334C17.25 44.5514 16.606 43.9167 15.8125 43.9167Z" fill="#1B9DE2"/>
<path d="M15.8125 38.25C15.5451 38.25 7.45487 38.25 7.1875 38.25C6.394 38.25 5.75 38.8847 5.75 39.6667C5.75 40.4487 6.394 41.0833 7.1875 41.0833C7.45487 41.0833 15.5451 41.0833 15.8125 41.0833C16.606 41.0833 17.25 40.4487 17.25 39.6667C17.25 38.8847 16.606 38.25 15.8125 38.25Z" fill="#1B9DE2"/>
<path d="M27.3125 24.0833C28.1064 24.0833 28.75 23.4491 28.75 22.6667C28.75 21.8843 28.1064 21.25 27.3125 21.25C26.5186 21.25 25.875 21.8843 25.875 22.6667C25.875 23.4491 26.5186 24.0833 27.3125 24.0833Z" fill="#1B9DE2"/>
<path d="M56.0625 24.0833C56.8564 24.0833 57.5 23.4491 57.5 22.6667C57.5 21.8843 56.8564 21.25 56.0625 21.25C55.2686 21.25 54.625 21.8843 54.625 22.6667C54.625 23.4491 55.2686 24.0833 56.0625 24.0833Z" fill="#0078D4"/>
<path d="M61.8125 24.0833C62.6064 24.0833 63.25 23.4491 63.25 22.6667C63.25 21.8843 62.6064 21.25 61.8125 21.25C61.0186 21.25 60.375 21.8843 60.375 22.6667C60.375 23.4491 61.0186 24.0833 61.8125 24.0833Z" fill="#0078D4"/>
<path d="M50.3125 26.9167C50.0451 26.9167 41.9549 26.9167 41.6875 26.9167C40.894 26.9167 40.25 27.5514 40.25 28.3334C40.25 29.1154 40.894 29.75 41.6875 29.75C41.9549 29.75 50.0451 29.75 50.3125 29.75C51.106 29.75 51.75 29.1154 51.75 28.3334C51.75 27.5514 51.106 26.9167 50.3125 26.9167Z" fill="#0078D4"/>
<path d="M56.0625 29.75C56.8564 29.75 57.5 29.1158 57.5 28.3334C57.5 27.551 56.8564 26.9167 56.0625 26.9167C55.2686 26.9167 54.625 27.551 54.625 28.3334C54.625 29.1158 55.2686 29.75 56.0625 29.75Z" fill="#0078D4"/>
<path d="M61.8125 29.75C62.6064 29.75 63.25 29.1158 63.25 28.3334C63.25 27.551 62.6064 26.9167 61.8125 26.9167C61.0186 26.9167 60.375 27.551 60.375 28.3334C60.375 29.1158 61.0186 29.75 61.8125 29.75Z" fill="#0078D4"/>
<path d="M50.3125 32.5833C50.0451 32.5833 41.9549 32.5833 41.6875 32.5833C40.894 32.5833 40.25 33.218 40.25 34C40.25 34.782 40.894 35.4166 41.6875 35.4166C41.9549 35.4166 50.0451 35.4166 50.3125 35.4166C51.106 35.4166 51.75 34.782 51.75 34C51.75 33.218 51.106 32.5833 50.3125 32.5833Z" fill="#0078D4"/>
<path d="M61.8125 35.4166C62.6064 35.4166 63.25 34.7824 63.25 34C63.25 33.2176 62.6064 32.5833 61.8125 32.5833C61.0186 32.5833 60.375 33.2176 60.375 34C60.375 34.7824 61.0186 35.4166 61.8125 35.4166Z" fill="#0078D4"/>
<path d="M21.5625 29.75C22.3564 29.75 23 29.1158 23 28.3334C23 27.551 22.3564 26.9167 21.5625 26.9167C20.7686 26.9167 20.125 27.551 20.125 28.3334C20.125 29.1158 20.7686 29.75 21.5625 29.75Z" fill="#1B9DE2"/>
<path d="M27.3125 29.75C28.1064 29.75 28.75 29.1158 28.75 28.3334C28.75 27.551 28.1064 26.9167 27.3125 26.9167C26.5186 26.9167 25.875 27.551 25.875 28.3334C25.875 29.1158 26.5186 29.75 27.3125 29.75Z" fill="#1B9DE2"/>
<path d="M27.3125 35.4166C28.1064 35.4166 28.75 34.7824 28.75 34C28.75 33.2176 28.1064 32.5833 27.3125 32.5833C26.5186 32.5833 25.875 33.2176 25.875 34C25.875 34.7824 26.5186 35.4166 27.3125 35.4166Z" fill="#1B9DE2"/>
<path d="M27.3125 46.75C28.1064 46.75 28.75 46.1158 28.75 45.3334C28.75 44.551 28.1064 43.9167 27.3125 43.9167C26.5186 43.9167 25.875 44.551 25.875 45.3334C25.875 46.1158 26.5186 46.75 27.3125 46.75Z" fill="#1B9DE2"/>
<path d="M21.5625 41.0833C22.3564 41.0833 23 40.4491 23 39.6667C23 38.8843 22.3564 38.25 21.5625 38.25C20.7686 38.25 20.125 38.8843 20.125 39.6667C20.125 40.4491 20.7686 41.0833 21.5625 41.0833Z" fill="#1B9DE2"/>
<path d="M27.3125 41.0833C28.1064 41.0833 28.75 40.4491 28.75 39.6667C28.75 38.8843 28.1064 38.25 27.3125 38.25C26.5186 38.25 25.875 38.8843 25.875 39.6667C25.875 40.4491 26.5186 41.0833 27.3125 41.0833Z" fill="#1B9DE2"/>
</svg>
