<svg width="208" height="46" viewBox="0 0 208 46" fill="none" xmlns="http://www.w3.org/2000/svg">
<g clip-path="url(#clip0)">
<path d="M151.642 45.1425H79.832L83.5958 38.12H155.108L151.642 45.1425Z" fill="#9EC42A"/>
<path d="M91.0249 39.716L89.8363 43.7592H89.3411L88.4497 40.5672L87.4592 43.7592H86.964L85.7754 39.716H86.2706L87.1621 43.1208L88.1525 39.716H88.5487L89.5392 43.1208L90.4306 39.716H91.0249ZM92.0154 43.7592H91.6192V39.716H92.0154V43.7592ZM95.6802 39.716V40.1416H94.3925V43.6528H93.8973V40.1416H92.6097V39.716H95.6802ZM99.3449 39.716V43.7592H98.8497V41.9504H96.6706V43.7592H96.2744V39.716H96.6706V41.5248H98.8497V39.716H99.3449ZM103.307 39.716C103.703 39.716 104 39.8224 104.396 40.0352V40.5672C104.099 40.3544 103.802 40.248 103.406 40.248C102.613 40.248 101.821 40.78 101.821 41.844C101.821 42.908 102.613 43.44 103.406 43.44C103.802 43.44 104.099 43.3336 104.396 43.1208V43.5464C104.099 43.7592 103.703 43.8656 103.307 43.8656C102.415 43.8656 101.326 43.1208 101.326 41.844C101.425 40.3544 102.415 39.716 103.307 39.716ZM105.684 42.376H107.368L106.575 40.4608C106.575 40.4608 106.575 40.3544 106.476 40.3544C106.476 40.4608 106.476 40.4608 106.377 40.4608L105.684 42.376ZM104.693 43.7592L106.278 39.716H106.773L108.358 43.7592H107.863L107.467 42.8016H105.486L105.09 43.7592H104.693ZM109.349 41.7376H110.339C110.834 41.7376 111.231 41.5248 111.231 40.9928C111.231 40.3544 110.735 40.248 110.339 40.248H109.349V41.7376ZM108.953 43.7592V39.716H110.438C111.132 39.716 111.825 40.0352 111.825 40.8864C111.825 41.6312 111.33 41.9504 110.834 42.0568L112.122 43.6528H111.528L110.339 42.0568H109.448V43.6528L108.953 43.7592ZM115.093 39.716V40.1416H113.013V41.4184H114.895V41.844H113.013V43.2272H115.093V43.6528H112.518V39.6096H115.093V39.716ZM119.749 39.716V40.1416H117.669V41.5248H119.551V41.9504H117.669V43.6528H117.173V39.6096H119.749V39.716ZM122.126 40.1416C121.135 40.1416 120.64 40.8864 120.64 41.7376C120.64 42.5888 121.135 43.3336 122.126 43.3336C123.116 43.3336 123.612 42.5888 123.612 41.7376C123.612 40.8864 123.116 40.1416 122.126 40.1416ZM122.126 39.716C123.413 39.716 124.107 40.78 124.107 41.7376C124.107 42.8016 123.413 43.7592 122.126 43.7592C120.838 43.7592 120.145 42.6952 120.145 41.7376C120.145 40.6736 120.739 39.716 122.126 39.716ZM125.196 41.7376H126.187C126.682 41.7376 127.078 41.5248 127.078 40.9928C127.078 40.3544 126.583 40.248 126.187 40.248H125.196V41.7376ZM124.8 43.7592V39.716H126.286C126.979 39.716 127.673 40.0352 127.673 40.8864C127.673 41.6312 127.177 41.9504 126.682 42.0568L127.97 43.6528H127.375L126.187 42.0568H125.295V43.6528L124.8 43.7592ZM129.753 43.7592V39.716H130.149L132.427 42.908V42.5888V39.716H132.922V43.7592H132.526L130.248 40.5672V40.8864V43.7592H129.753ZM134.408 42.376H136.092L135.299 40.4608C135.299 40.4608 135.299 40.3544 135.2 40.3544C135.2 40.4608 135.2 40.4608 135.101 40.4608L134.408 42.376ZM133.417 43.7592L135.002 39.716H135.497L137.082 43.7592H136.686L136.29 42.8016H134.309L133.913 43.7592H133.417ZM139.855 39.716V40.1416H138.568V43.6528H138.073V40.1416H136.785V39.716H139.855ZM143.52 39.716V42.2696C143.52 43.44 142.827 43.7592 141.935 43.7592C141.143 43.7592 140.351 43.3336 140.351 42.2696V39.716H140.846V42.2696C140.846 43.1208 141.341 43.3336 141.935 43.3336C142.53 43.3336 143.025 43.0144 143.025 42.2696V39.716H143.52ZM144.907 41.7376H145.897C146.393 41.7376 146.789 41.5248 146.789 40.9928C146.789 40.3544 146.293 40.248 145.897 40.248H144.907V41.7376ZM144.511 43.7592V39.716H145.996C146.69 39.716 147.383 40.0352 147.383 40.8864C147.383 41.6312 146.888 41.9504 146.393 42.0568L147.68 43.6528H147.086L145.897 42.0568H145.006V43.6528L144.511 43.7592ZM150.652 39.716V40.1416H148.572V41.4184H150.453V41.844H148.572V43.2272H150.652V43.6528H148.076V39.6096H150.652V39.716Z" fill="white"/>
<path d="M16.3426 2.15656C19.5121 2.15656 22.5826 2.90136 25.3559 4.17817V10.5622C23.1769 8.9662 20.2054 8.115 17.234 8.115C11.8854 8.115 6.73497 11.0942 6.73497 18.4359C6.73497 26.8415 12.4797 28.8631 16.7388 28.8631C18.0264 28.8631 19.1159 28.6503 20.0074 28.3311V17.1591H25.9502V32.8C22.9788 34.1832 19.7102 34.928 16.4416 34.928C8.22069 34.928 0.296875 30.14 0.296875 18.5423C0.395923 7.05099 8.31973 2.15656 16.3426 2.15656ZM41.6988 12.1582V18.2231C38.5293 17.6911 35.4588 18.9679 34.2702 21.5215V34.1832H28.4264V12.5838H33.5769V15.7759C34.9635 13.435 37.935 11.7326 41.6988 12.1582ZM52.1978 16.7335C49.7216 16.7335 47.5426 18.4359 47.4435 21.3087H56.3578C56.655 19.9255 55.8626 16.7335 52.1978 16.7335ZM51.9997 12.0518C60.3197 12.0518 62.994 19.0743 61.7064 25.4583H47.5426C48.2359 28.6503 51.3064 29.9272 54.575 29.9272C56.8531 29.9272 58.9331 29.3951 60.6169 28.6503V33.5448C58.735 34.396 56.2588 34.928 53.2873 34.928C46.9483 34.928 41.6988 30.9912 41.6988 23.5431C41.6988 15.2438 47.4435 12.0518 51.9997 12.0518ZM73.6912 16.7335C71.215 16.7335 69.0359 18.4359 68.9369 21.3087H77.8512C78.0492 19.9255 77.2569 16.7335 73.6912 16.7335ZM73.394 12.0518C81.714 12.0518 84.3883 19.0743 83.1007 25.4583H68.9369C69.6302 28.6503 72.7007 29.9272 75.9693 29.9272C78.2473 29.9272 80.3274 29.3951 82.0112 28.6503V33.5448C80.1293 34.396 77.6531 34.928 74.6816 34.928C68.3426 34.928 63.0931 30.9912 63.0931 23.5431C63.0931 15.2438 68.9369 12.0518 73.394 12.0518ZM96.5712 12.0518C101.821 12.0518 104.693 15.8823 104.693 20.8831V34.1832H98.8493V21.6279C98.8493 18.7551 97.2645 17.3719 94.9864 17.3719C92.9064 17.3719 91.3216 18.8615 90.5293 20.1383V34.1832H84.6854V12.5838H89.8359V15.3502C91.4207 13.435 93.6988 12.0518 96.5712 12.0518ZM137.478 12.5838L131.04 34.1832H124.899L120.838 20.1383L116.876 34.1832H110.735L104.297 12.5838H110.537L114.202 27.3735L118.263 12.5838H123.809L127.771 27.3735L131.436 12.5838H137.478ZM142.331 27.6927C142.331 29.2887 143.718 30.3528 145.501 30.3528C147.085 30.3528 148.67 29.8208 150.057 28.6503V25.2455C149.165 25.0327 147.878 24.7135 146.59 24.7135C144.51 24.7135 142.331 25.5647 142.331 27.6927ZM157.287 30.0336C157.584 30.0336 157.981 30.0336 158.377 29.8208V33.9704C157.485 34.2896 156.297 34.6088 155.108 34.6088C153.028 34.6088 151.543 33.7576 150.651 32.1616C148.67 33.864 146.392 34.8216 143.421 34.8216C139.657 34.8216 136.388 32.4808 136.388 28.2247C136.388 22.6919 141.242 20.9895 145.204 20.9895C146.788 20.9895 148.571 21.2023 149.958 21.5215V20.7767C149.958 18.6487 148.373 17.1591 145.204 17.1591C142.43 17.1591 139.954 18.0103 138.072 18.7551V13.3286C139.657 12.6902 142.727 11.839 145.897 11.839C151.939 11.839 155.802 14.499 155.802 21.6279V28.6503C155.802 29.7143 156.495 30.0336 157.287 30.0336ZM172.145 12.5838H178.186L169.272 36.7368C166.994 42.8016 163.924 44.6105 160.655 44.6105C159.565 44.6105 158.575 44.3977 157.485 44.0785V38.8648C158.278 39.0776 159.07 39.184 159.863 39.184C161.943 39.184 163.527 37.6944 164.617 34.5024V34.396L155.108 12.4774H161.249L167.093 27.0543L172.145 12.5838ZM182.247 7.15739L208.396 23.4367L182.247 39.6096V7.15739Z" fill="#1C1C1C"/>
</g>
<defs>
<clipPath id="clip0">
<rect width="208" height="44.6883" fill="white" transform="translate(0 0.986145)"/>
</clipPath>
</defs>
</svg>
