<svg width="48" height="48" viewBox="0 0 48 48" fill="none" xmlns="http://www.w3.org/2000/svg">
<path d="M24 3.97229C18.6957 3.97229 13.6086 6.06483 9.85786 9.78958C6.10714 13.5143 4 18.5662 4 23.8338C4 29.1014 6.10714 34.1532 9.85786 37.878C13.6086 41.6027 18.6957 43.6952 24 43.6952C29.3043 43.6952 34.3914 41.6027 38.1421 37.878C41.8929 34.1532 44 29.1014 44 23.8338C44 18.5662 41.8929 13.5143 38.1421 9.78958C34.3914 6.06483 29.3043 3.97229 24 3.97229Z" fill="#6AC359"/>
<path d="M33.95 14.8961L30.204 33.8896C30.204 33.8896 30.043 34.7576 28.959 34.7576C28.383 34.7576 28.086 34.4855 28.086 34.4855L19.972 27.7991L16.002 25.812L10.907 24.4664C10.907 24.4664 10 24.2062 10 23.4614C10 22.8407 10.933 22.5448 10.933 22.5448L32.249 14.1354C32.248 14.1344 32.9 13.902 33.375 13.903C33.667 13.903 34 14.0272 34 14.3996C34 14.6478 33.95 14.8961 33.95 14.8961Z" fill="white"/>
<path d="M23.0008 30.2937L19.5748 33.6444C19.5748 33.6444 19.4258 33.7586 19.2268 33.7635C19.1578 33.7655 19.0838 33.7546 19.0078 33.7208L19.9718 27.7971L23.0008 30.2937Z" fill="#B0BEC5"/>
<path d="M29.897 18.07C29.728 17.8515 29.416 17.8118 29.196 17.9776L16 25.8199C16 25.8199 18.106 31.6711 18.427 32.684C18.749 33.698 19.007 33.7218 19.007 33.7218L19.971 27.7981L29.803 18.7651C30.023 18.5993 30.064 18.2884 29.897 18.07Z" fill="#CFD8DC"/>
</svg>
