<svg width="48" height="48" viewBox="0 0 48 48" fill="none" xmlns="http://www.w3.org/2000/svg">
<path d="M24 4.96536C21.361 4.96536 13.33 4.96536 8.89 8.99128C6.246 11.607 5 15.3867 5 20.8545V23.8338C5 29.3016 6.246 33.0813 8.921 35.7268C10.253 36.9334 12.069 37.8977 14.289 38.564L15 38.7765V44.0676C15 44.6883 15.181 44.6883 15.241 44.6883C15.364 44.6883 15.561 44.6496 15.935 44.3199C16.025 44.2315 16.685 43.5224 19.895 39.9514L20.219 39.5909L20.704 39.6217C21.779 39.6882 22.888 39.7229 24 39.7229C26.639 39.7229 34.67 39.7229 39.11 35.696C41.753 33.0803 43 29.3006 43 23.8338V20.8545C43 15.3867 41.754 11.607 39.079 8.96149C34.67 4.96536 26.639 4.96536 24 4.96536Z" fill="white"/>
<path d="M33.4513 28.6542C32.3403 27.7246 31.8273 27.4436 30.2933 26.529C29.6543 26.1486 28.6803 25.8199 28.1693 25.8199C27.8203 25.8199 27.4023 26.0851 27.1463 26.3393C26.4903 26.9908 26.2753 27.8061 25.1253 27.8061C24.0003 27.8061 22.0353 26.669 20.6253 25.1993C19.1453 23.799 18.0003 21.8476 18.0003 20.7304C18.0003 19.5884 18.8063 19.36 19.4623 18.7075C19.7183 18.4543 20.0003 18.0392 20.0003 17.6926C20.0003 17.1851 19.6693 16.2328 19.2863 15.5982C18.3653 14.0738 18.0833 13.5644 17.1463 12.4621C16.8293 12.0887 16.4683 11.9179 16.0903 11.9169C15.4513 11.9159 14.6123 12.2307 14.0443 12.6508C13.1903 13.2834 12.2973 14.1444 12.0583 15.2169C12.0263 15.3629 12.0073 15.5098 12.0013 15.6568C11.9553 16.774 12.3973 17.9081 12.8743 18.8684C13.9973 21.1316 15.4833 23.3223 17.1003 25.2787C17.6173 25.9043 18.1803 26.4863 18.7633 27.0484C19.3293 27.6263 19.9153 28.1854 20.5453 28.6998C22.5153 30.3056 24.7213 31.7813 27.0003 32.8966C27.9583 33.3653 29.0863 33.7963 30.2003 33.7645C30.3593 33.7595 30.5183 33.7417 30.6773 33.7069C31.7573 33.4706 32.6243 32.5828 33.2613 31.7347C33.6843 31.1706 34.0013 30.3384 34.0003 29.7028C33.9993 29.3275 33.8273 28.969 33.4513 28.6542ZM34.0003 23.8338C33.4483 23.8338 33.0003 23.3889 33.0003 22.8407V21.8476C33.0003 16.92 28.9623 12.91 24.0003 12.91C23.4483 12.91 23.0003 12.4651 23.0003 11.9169C23.0003 11.3687 23.4483 10.9238 24.0003 10.9238C30.0653 10.9238 35.0003 15.8246 35.0003 21.8476V22.8407C35.0003 23.3889 34.5523 23.8338 34.0003 23.8338ZM27.8583 21.8476C27.4143 21.8476 27.0083 21.5517 26.8913 21.1048C26.6173 20.0611 25.7973 19.2458 24.7503 18.9776C24.2153 18.8396 23.8943 18.2984 24.0323 17.7671C24.1703 17.2368 24.7143 16.918 25.2513 17.0541C26.9993 17.5039 28.3693 18.8634 28.8263 20.6033C28.9653 21.1346 28.6453 21.6758 28.1113 21.8149C28.0263 21.8367 27.9413 21.8476 27.8583 21.8476Z" fill="#6AC359"/>
<path d="M31.0004 22.8407C30.4484 22.8407 30.0004 22.3958 30.0004 21.8476C30.0004 18.6817 27.5064 16.0699 24.3224 15.9031C23.7704 15.8743 23.3474 15.4065 23.3764 14.8594C23.4054 14.3112 23.8844 13.8901 24.4274 13.9199C28.6744 14.1424 32.0004 17.6251 32.0004 21.8476C32.0004 22.3958 31.5524 22.8407 31.0004 22.8407Z" fill="#6AC359"/>
<path d="M24.0005 3.97229C19.5005 3.97229 12.4885 4.38342 8.2165 8.2584C5.1965 11.2446 4.0005 15.4334 4.0005 20.8545C4.0005 21.3034 3.9985 21.8039 4.0025 22.3442C3.9985 22.8834 4.0005 23.3839 4.0005 23.8328C4.0005 29.254 5.1965 33.4427 8.2165 36.4289C9.8425 37.9036 11.8705 38.8739 14.0005 39.5134V44.0676C14.0005 45.6526 15.0495 45.6814 15.2415 45.6814H15.2505C15.7445 45.6794 16.1715 45.4391 16.5995 45.0617C16.7605 44.9197 18.6195 42.8621 20.6415 40.6117C21.8455 40.6882 22.9895 40.716 23.9995 40.716C28.4995 40.716 35.5105 40.3039 39.7835 36.4289C42.8025 33.4437 43.9995 29.254 43.9995 23.8328C43.9995 23.3839 44.0015 22.8834 43.9975 22.3432C44.0015 21.8029 43.9995 21.3034 43.9995 20.8536C43.9995 15.4324 42.8035 11.2436 39.7835 8.2574C35.5115 4.38342 28.5005 3.97229 24.0005 3.97229ZM41.0005 23.4872V23.8328C41.0005 28.7048 39.9555 32.0246 37.7145 34.272C33.8325 37.7368 26.4375 37.7368 23.9995 37.7368C23.2575 37.7368 22.0535 37.7358 20.6325 37.6375C20.2375 38.0784 16.0005 42.7846 16.0005 42.7846V36.9622C13.8965 36.4607 11.8175 35.6384 10.2865 34.273C8.0455 32.0246 7.0005 28.7048 7.0005 23.8328V23.4872C7.0005 23.1386 6.9995 22.7622 7.0025 22.3223C6.9995 21.9251 6.9995 21.5497 7.0005 21.2001V20.8545C7.0005 15.9825 8.0455 12.6627 10.2865 10.4154C14.1675 6.95052 21.5635 6.95052 24.0005 6.95052C26.4375 6.95052 33.8325 6.95052 37.7135 10.4154C39.9555 12.6627 40.9995 15.9825 40.9995 20.8545V21.2001C40.9995 21.5487 41.0005 21.9251 40.9975 22.365C41.0005 22.7632 41.0005 23.1386 41.0005 23.4872Z" fill="#6AC359"/>
</svg>
