<svg width="48" height="48" viewBox="0 0 48 48" fill="none" xmlns="http://www.w3.org/2000/svg">
<path d="M4.86719 43.0031L7.56119 33.2362C5.89919 30.3781 5.02519 27.1347 5.02619 23.8129C5.03119 13.4204 13.5472 4.96536 24.0132 4.96536C29.0922 4.96735 33.8582 6.93066 37.4432 10.4928C41.0272 14.056 43.0012 18.7909 42.9992 23.8278C42.9952 34.2203 34.4772 42.6763 24.0132 42.6763C24.0122 42.6763 24.0132 42.6763 24.0132 42.6763H24.0052C20.8282 42.6754 17.7052 41.8839 14.9322 40.3813L4.86719 43.0031Z" fill="white"/>
<path d="M4.8687 43.4996C4.7367 43.4996 4.6087 43.448 4.5137 43.3526C4.3887 43.2265 4.3397 43.0428 4.3867 42.873L7.0257 33.3037C5.3897 30.4178 4.5267 27.1407 4.5287 23.8139C4.5327 13.1463 13.2737 4.46883 24.0147 4.46883C29.2247 4.47081 34.1197 6.48576 37.7987 10.1423C41.4777 13.7997 43.5027 18.6599 43.5007 23.8278C43.4967 34.4944 34.7547 43.1729 24.0147 43.1729C20.8257 43.1719 17.6707 42.3903 14.8707 40.9117L4.9957 43.4827C4.9537 43.4946 4.9117 43.4996 4.8687 43.4996Z" fill="white"/>
<path d="M24.0136 4.96536C29.0926 4.96735 33.8586 6.93066 37.4436 10.4928C41.0276 14.056 43.0016 18.7909 42.9996 23.8278C42.9956 34.2203 34.4776 42.6763 24.0136 42.6763H24.0056C20.8286 42.6754 17.7056 41.8839 14.9326 40.3814L4.8676 43.0031L7.5616 33.2362C5.8996 30.3781 5.0256 27.1347 5.0266 23.8129C5.0316 13.4204 13.5476 4.96536 24.0136 4.96536ZM24.0136 3.97229C12.9976 3.97229 4.0316 12.8722 4.0266 23.8129C4.0256 27.1566 4.8756 30.4516 6.4876 33.3683L3.9026 42.7419C3.8086 43.0845 3.9046 43.45 4.1566 43.7022C4.3466 43.8929 4.6036 43.9971 4.8676 43.9971C4.9526 43.9971 5.0376 43.9862 5.1216 43.9644L14.8086 41.442C17.6366 42.8998 20.8066 43.6694 24.0056 43.6704C35.0296 43.6704 43.9956 34.7695 44.0006 23.8288C44.0026 18.5268 41.9256 13.5415 38.1526 9.7917C34.3776 6.04086 29.3566 3.97428 24.0136 3.97229Z" fill="#6AC359"/>
<path d="M35.1764 12.7431C32.1964 9.78178 28.2354 8.15016 24.0194 8.14917C15.3154 8.14917 8.23642 15.1762 8.23242 23.8139C8.23142 26.7743 9.06542 29.6562 10.6454 32.1518L11.0214 32.7446L9.42642 38.5253L15.3994 36.9702L15.9764 37.3098C18.3984 38.7378 21.1764 39.4926 24.0084 39.4936H24.0144C32.7124 39.4936 39.7914 32.4656 39.7944 23.8268C39.7954 19.641 38.1564 15.7045 35.1764 12.7431Z" fill="#6AC359"/>
<path fill-rule="evenodd" clip-rule="evenodd" d="M19.2682 15.9339C18.9132 15.1493 18.5392 15.1335 18.2002 15.1196C17.9232 15.1076 17.6072 15.1086 17.2912 15.1086C16.9752 15.1086 16.4612 15.2268 16.0262 15.6985C15.5912 16.1702 14.3652 17.3093 14.3652 19.6271C14.3652 21.945 16.0652 24.1853 16.3022 24.4991C16.5392 24.8129 19.5842 29.7217 24.4062 31.6105C28.4132 33.1796 29.2292 32.8678 30.0992 32.7893C30.9692 32.7109 32.9062 31.6503 33.3012 30.5499C33.6962 29.4496 33.6962 28.5072 33.5782 28.3106C33.4592 28.1139 33.1432 27.9967 32.6692 27.7604C32.1952 27.524 29.8622 26.385 29.4272 26.2281C28.9922 26.0712 28.6762 25.9927 28.3592 26.4644C28.0432 26.9351 27.1342 27.9967 26.8572 28.3106C26.5802 28.6254 26.3032 28.6651 25.8292 28.4287C25.3552 28.1924 23.8272 27.6958 22.0142 26.091C20.6042 24.8427 19.6522 23.3005 19.3752 22.8288C19.0982 22.3581 19.3452 22.1029 19.5832 21.8675C19.7962 21.656 20.0572 21.3173 20.2952 21.0422C20.5322 20.7672 20.6112 20.5705 20.7692 20.2567C20.9272 19.9419 20.8482 19.6668 20.7292 19.4315C20.6122 19.1951 19.6902 16.8654 19.2682 15.9339Z" fill="white"/>
</svg>
